<svg fill="none" height="32" viewBox="0 0 32 32" width="32" xmlns="http://www.w3.org/2000/svg"><g fill="#fc4561"><path d="m16.5047 5.61578.7043 2.39255c.9597 3.25987 3.5092 5.80937 6.7691 6.76907l2.3925.7043c.4784.1408.4784.8184 0 .9593l-2.3925.7043c-3.2599.9596-5.8094 3.5091-6.7691 6.769l-.7043 2.3926c-.1408.4784-.8184.4784-.9593 0l-.7043-2.3926c-.9596-3.2599-3.5091-5.8094-6.76901-6.769l-2.39255-.7043c-.4784-.1409-.4784-.8185 0-.9593l2.39255-.7043c3.25991-.9597 5.80941-3.5092 6.76901-6.76907l.7043-2.39255c.1409-.47841.8185-.47841.9593 0z"/><path d="m6 1c-2.76142 0-5 2.23858-5 5v20c0 2.7614 2.23858 5 5 5h20c2.7614 0 5-2.2386 5-5v-20c0-2.76142-2.2386-5-5-5zm-3 5c0-1.65685 1.34315-3 3-3h20c1.6569 0 3 1.34315 3 3v20c0 1.6569-1.3431 3-3 3h-20c-1.65685 0-3-1.3431-3-3z"/></g></svg>